<?xml version="1.0" encoding="UTF-8"?>
<!-- Generator: Adobe Illustrator 16.0.0, SVG Export Plug-In . SVG Version: 6.00 Build 0)  -->
<svg version="1.2" baseProfile="tiny" id="Layer_1" xmlns="http://www.w3.org/2000/svg" xmlns:xlink="http://www.w3.org/1999/xlink" x="0px" y="0px" width="650px" height="400px" viewBox="0 0 650 400" xml:space="preserve">
<rect display="none" fill="#222222" width="650" height="400"/>
<path fill="#FFFFFF" d="M650,4.999V0h-8.104L392.506,153.464c-14.04-20.329-37.012-34.015-63.254-35.355V0.002h-8.504v118.107  c-26.242,1.34-49.214,15.027-63.254,35.356L8.113,0H0v4.993l253.021,155.706c-5.747,10.501-9.266,22.396-9.912,35.05H0v8.504  h243.109c0.646,12.654,4.165,24.548,9.912,35.05L0,395.008V400h8.113l249.381-153.465c14.041,20.329,37.012,34.016,63.254,35.355  V400h8.504V281.891c26.242-1.34,49.214-15.025,63.254-35.354L641.896,400H650v-4.999L396.979,239.303  c5.747-10.502,9.267-22.396,9.912-35.051H650v-8.504H406.891c-0.646-12.667-4.173-24.571-9.929-35.08  c0.005,0.01,0.011,0.019,0.017,0.029L650,4.999z M255.197,156.972c-0.012,0.02-0.025,0.039-0.038,0.059  C255.172,157.011,255.185,156.992,255.197,156.972z M255.161,242.973c0.009,0.016,0.019,0.028,0.028,0.043  C255.18,243.001,255.17,242.986,255.161,242.973z M394.816,243.008c0.007-0.011,0.014-0.021,0.021-0.031  C394.83,242.986,394.823,242.997,394.816,243.008z M325,273.496c-40.526,0-73.496-32.971-73.496-73.496  c0-40.526,32.97-73.496,73.496-73.496c40.525,0,73.496,32.97,73.496,73.496C398.496,240.525,365.525,273.496,325,273.496z   M394.803,156.972c0.014,0.019,0.025,0.038,0.037,0.057C394.828,157.01,394.814,156.991,394.803,156.972z"/>
</svg>